<svg width="220" height="29" viewBox="0 0 220 29" fill="none" xmlns="http://www.w3.org/2000/svg">
<path d="M61.8156 19.3139C59.3946 19.3139 58.044 17.5845 58.044 14.5655V14.4056C58.044 11.3866 59.5046 9.6172 61.7956 9.6172C63.6463 9.6172 64.5967 10.5269 64.8368 12.2963H68.2082C68.0481 10.5069 67.2978 9.18735 66.1774 8.31765C65.0369 7.44795 63.4963 7.0181 61.7756 7.0181C59.7247 7.0181 57.924 7.76784 56.6435 9.06739C55.3429 10.3669 54.5726 12.2363 54.5726 14.4255V14.5855C54.5726 16.8347 55.2029 18.6541 56.4434 19.9336C57.6639 21.2332 59.4846 21.9629 61.8656 21.9629C63.6563 21.9629 65.197 21.4931 66.3374 20.5834C67.4679 19.6937 68.1982 18.3142 68.3783 16.5348H65.1569C64.8968 18.4042 63.6363 19.3139 61.8256 19.3139H61.8156ZM74.0706 7.24802L69.2986 21.743H72.3899L73.3803 18.5141H78.6324L79.6228 21.743H83.0542L78.3423 7.24802H74.0606H74.0706ZM74.0906 16.1949L76.0214 9.9271L77.9321 16.1949H74.0906ZM90.3072 7.24802H85.2951V21.743H88.5565V16.4648H90.4072C92.0479 16.4648 93.4084 16.105 94.3688 15.3552C95.3192 14.6055 95.8494 13.4859 95.8494 11.9464V11.8664C95.8494 8.77749 93.8586 7.23802 90.3072 7.23802V7.24802ZM92.6782 11.9764C92.6782 13.4359 91.8678 14.1856 90.2271 14.1856H88.5565V9.74716H90.2271C91.7878 9.74716 92.6782 10.3569 92.6782 11.8964V11.9764ZM98.5705 21.753H101.882V7.24802H98.5705V21.753ZM115.798 7.24802H104.653V9.80714H108.565V21.753H111.866V9.80714H115.788V7.24802H115.798ZM120.309 7.24802L115.537 21.743H118.629L119.619 18.5141H124.871L125.862 21.743H129.293L124.591 7.24802H120.309ZM120.329 16.1949L122.26 9.9271L124.171 16.1949H120.329ZM134.815 7.24802H131.524V21.743H140.718V19.1639H134.815V7.24802ZM154.583 16.3749H157.855C157.835 17.2146 157.575 17.9743 157.004 18.5241C156.434 19.0939 155.584 19.4338 154.363 19.4338C152.923 19.4338 151.932 18.944 151.282 18.0743C150.632 17.2446 150.332 16.025 150.332 14.6255V14.4655C150.332 11.4866 151.792 9.6172 154.333 9.6172C156.094 9.6172 157.174 10.3869 157.475 12.0864H160.746C160.586 10.297 159.745 9.02741 158.595 8.19769C157.435 7.38797 155.914 7.0181 154.293 7.0181C152.162 7.0181 150.302 7.78784 149.001 9.08739C147.681 10.3869 146.91 12.2263 146.91 14.4155V14.5755C146.91 16.7447 147.561 18.5641 148.841 19.8637C150.082 21.1832 151.922 21.9529 154.303 21.9529C156.474 21.9529 158.185 21.3032 159.345 20.1636C160.496 19.054 161.126 17.4545 161.126 15.5052V13.9657H154.613V16.3549L154.583 16.3749ZM173.661 14.2856C174.211 13.6558 174.511 12.8461 174.511 11.7265V11.6465C174.511 10.167 173.961 9.0574 172.991 8.31765C172.02 7.5879 170.62 7.23802 168.909 7.23802H163.717V21.733H166.988V16.135H168.409L171.88 21.733H175.372L171.54 15.5751C172.371 15.3252 173.131 14.9054 173.671 14.2756L173.661 14.2856ZM171.31 11.8364C171.31 13.216 170.48 13.9257 168.839 13.9257H166.988V9.76715H168.839C170.44 9.76715 171.31 10.277 171.31 11.7565V11.8364ZM184.115 7.04809C181.944 7.04809 180.094 7.81782 178.773 9.11738C177.413 10.4169 176.642 12.2563 176.642 14.4255V14.5855C176.642 16.6948 177.373 18.5541 178.673 19.8537C179.944 21.1732 181.824 21.9629 184.095 21.9629C186.366 21.9629 188.237 21.1732 189.538 19.8537C190.838 18.5341 191.588 16.6648 191.588 14.4955V14.3356C191.588 12.1463 190.798 10.337 189.498 9.0474C188.177 7.76784 186.316 7.03809 184.125 7.03809L184.115 7.04809ZM188.157 14.5555C188.157 16.015 187.747 17.2346 187.087 18.0443C186.376 18.874 185.386 19.3638 184.165 19.3638C182.945 19.3638 181.955 18.894 181.244 18.0643C180.514 17.2546 180.084 16.055 180.084 14.5755V14.4155C180.084 12.9561 180.454 11.7565 181.164 10.9268C181.874 10.117 182.845 9.64719 184.125 9.64719C185.406 9.64719 186.396 10.137 187.107 10.9667C187.777 11.7965 188.157 12.996 188.157 14.3956V14.5555ZM202.893 15.7651C202.893 18.4242 202.043 19.3538 200.092 19.3538C198.141 19.3538 197.391 18.3142 197.391 15.885V7.24802H194.079V16.095C194.079 19.9636 196.23 21.9729 200.062 21.9729C203.893 21.9729 206.184 19.9436 206.184 15.975V7.24802H202.883V15.7651H202.893ZM214.458 7.24802H209.446V21.743H212.717V16.4648H214.558C216.208 16.4648 217.559 16.105 218.519 15.3552C219.47 14.6055 220 13.4859 220 11.9464V11.8664C220 8.77749 218.009 7.23802 214.458 7.23802V7.24802ZM216.829 11.9764C216.829 13.4359 216.018 14.1856 214.378 14.1856H212.717V9.74716H214.378C215.938 9.74716 216.829 10.3569 216.829 11.8964V11.9764Z" fill="#0060A7"/>
<path d="M15.3262 22.3323C17.197 22.3323 18.8177 21.8425 20.0081 20.8828C21.1986 19.9531 21.9689 18.5036 22.159 16.6343H18.7776C18.4975 18.5936 17.187 19.5533 15.2862 19.5533C12.7552 19.5533 11.3346 17.7439 11.3346 14.585V14.415C11.3346 11.2461 12.8652 9.39676 15.2662 9.39676C17.207 9.39676 18.1974 10.3564 18.4575 12.2058H21.989C21.8189 10.3364 21.0286 8.95691 19.8581 8.03723C18.6676 7.11755 17.0569 6.6777 15.2462 6.6777C13.0953 6.6777 11.2046 7.46743 9.86402 8.82696C8.50346 10.1865 7.69313 12.1358 7.69313 14.435V14.605C7.69313 16.9642 8.3534 18.8735 9.65393 20.213C10.9345 21.5726 12.8452 22.3423 15.3362 22.3423L15.3262 22.3323ZM31.5929 22.3323C33.8738 22.3323 35.6545 21.6525 36.865 20.4629C38.0755 19.2933 38.7358 17.6139 38.7358 15.5746V13.9652H31.913V16.4743H35.3344C35.3144 17.344 35.0343 18.1537 34.444 18.7235C33.8538 19.3133 32.9534 19.6832 31.6829 19.6832C30.1723 19.6832 29.1319 19.1734 28.4516 18.2537C27.7713 17.384 27.4512 16.1044 27.4512 14.635V14.465C27.4512 11.3461 28.9818 9.38676 31.6429 9.38676C33.4936 9.38676 34.6241 10.1965 34.9442 11.9759H38.3656C38.1955 10.1065 37.3252 8.76698 36.1147 7.89728C34.9042 7.04757 33.3136 6.6677 31.6029 6.6677C29.372 6.6677 27.4112 7.47742 26.0506 8.83695C24.67 10.1965 23.8597 12.1258 23.8597 14.425V14.595C23.8597 16.8742 24.54 18.7835 25.8805 20.1431C27.1811 21.5226 29.1119 22.3323 31.6029 22.3323H31.5929ZM0 0V29H46.4389V0H0ZM43.5377 26.101H2.90118V2.899H43.5377V26.101Z" fill="#0060A7"/>
</svg>
