<svg width="187" height="25" viewBox="0 0 187 25" fill="none" xmlns="http://www.w3.org/2000/svg">
<path d="M52.5432 16.6499C50.4854 16.6499 49.3374 15.159 49.3374 12.5565V12.4186C49.3374 9.81603 50.5789 8.29069 52.5262 8.29069C54.0994 8.29069 54.9072 9.07491 55.1113 10.6002H57.977C57.8409 9.05767 57.2031 7.92013 56.2508 7.17039C55.2814 6.42065 53.9718 6.05009 52.5092 6.05009C50.766 6.05009 49.2354 6.69641 48.1469 7.81672C47.0415 8.93702 46.3867 10.5485 46.3867 12.4358V12.5737C46.3867 14.5127 46.9225 16.0811 47.9769 17.1842C49.0143 18.3045 50.5619 18.9336 52.5858 18.9336C54.1079 18.9336 55.4174 18.5285 56.3868 17.7443C57.3477 16.9774 57.9684 15.7881 58.1215 14.2542H55.3834C55.1623 15.8657 54.0909 16.6499 52.5517 16.6499H52.5432ZM62.96 6.24829L58.9038 18.744H61.5314L62.3732 15.9605H66.8376L67.6794 18.744H70.5961L66.591 6.24829H62.9515H62.96ZM62.977 13.9612L64.6182 8.55784L66.2423 13.9612H62.977ZM76.7611 6.24829H72.5009V18.744H75.273V14.1938H76.8461C78.2407 14.1938 79.3972 13.8836 80.2135 13.2373C81.0213 12.5909 81.472 11.6257 81.472 10.2986V10.2297C81.472 7.5668 79.7798 6.23968 76.7611 6.23968V6.24829ZM78.7764 10.3245C78.7764 11.5827 78.0876 12.229 76.6931 12.229H75.273V8.40272H76.6931C78.0196 8.40272 78.7764 8.9284 78.7764 10.2555V10.3245ZM83.785 18.7526H86.5996V6.24829H83.785V18.7526ZM98.4279 6.24829H88.9551V8.45443H92.2799V18.7526H95.0861V8.45443H98.4194V6.24829H98.4279ZM102.263 6.24829L98.2068 18.744H100.834L101.676 15.9605H106.141L106.982 18.744H109.899L105.902 6.24829H102.263ZM102.28 13.9612L103.921 8.55784L105.545 13.9612H102.28ZM114.593 6.24829H111.795V18.744H119.61V16.5206H114.593V6.24829ZM131.396 14.1163H134.176C134.159 14.8402 133.938 15.4951 133.454 15.9691C132.969 16.4603 132.246 16.7533 131.209 16.7533C129.984 16.7533 129.142 16.331 128.59 15.5813C128.037 14.866 127.782 13.8146 127.782 12.6082V12.4703C127.782 9.90221 129.023 8.29069 131.183 8.29069C132.68 8.29069 133.598 8.95426 133.853 10.4193H136.634C136.498 8.8767 135.784 7.78225 134.806 7.06698C133.819 6.36894 132.527 6.05009 131.149 6.05009C129.338 6.05009 127.756 6.71365 126.651 7.83395C125.528 8.95426 124.874 10.5399 124.874 12.4272V12.5651C124.874 14.4351 125.426 16.0035 126.515 17.1239C127.569 18.2614 129.134 18.925 131.158 18.925C133.003 18.925 134.457 18.3648 135.443 17.3824C136.421 16.4258 136.957 15.047 136.957 13.3665V12.0394H131.421V14.099L131.396 14.1163ZM147.612 12.3152C148.08 11.7723 148.335 11.0742 148.335 10.109V10.0401C148.335 8.76467 147.867 7.8081 147.042 7.17039C146.217 6.5413 145.027 6.23968 143.573 6.23968H139.16V18.7354H141.94V13.9094H143.148L146.098 18.7354H149.066L145.809 13.4269C146.515 13.2114 147.161 12.8495 147.62 12.3065L147.612 12.3152ZM145.614 10.2038C145.614 11.3931 144.908 12.0049 143.513 12.0049H141.94V8.41996H143.513C144.874 8.41996 145.614 8.85946 145.614 10.1349V10.2038ZM156.498 6.07594C154.653 6.07594 153.08 6.7395 151.957 7.85981C150.801 8.98011 150.146 10.5658 150.146 12.4358V12.5737C150.146 14.392 150.767 15.9949 151.872 17.1152C152.952 18.2528 154.551 18.9336 156.481 18.9336C158.411 18.9336 160.001 18.2528 161.107 17.1152C162.212 15.9777 162.85 14.3662 162.85 12.4961V12.3583C162.85 10.471 162.178 8.91117 161.073 7.79948C159.95 6.69641 158.369 6.06732 156.507 6.06732L156.498 6.07594ZM159.933 12.5478C159.933 13.806 159.585 14.8574 159.024 15.5554C158.42 16.2707 157.578 16.693 156.541 16.693C155.503 16.693 154.661 16.2879 154.058 15.5727C153.437 14.8746 153.071 13.8405 153.071 12.5651V12.4272C153.071 11.169 153.386 10.1349 153.99 9.41961C154.593 8.72158 155.418 8.31655 156.507 8.31655C157.595 8.31655 158.437 8.73881 159.041 9.45408C159.61 10.1694 159.933 11.2035 159.933 12.41V12.5478ZM172.459 13.5906C172.459 15.8829 171.736 16.6843 170.078 16.6843C168.42 16.6843 167.782 15.7881 167.782 13.694V6.24829H164.968V13.875C164.968 17.21 166.796 18.9422 170.053 18.9422C173.309 18.9422 175.257 17.1928 175.257 13.7716V6.24829H172.451V13.5906H172.459ZM182.289 6.24829H178.029V18.744H180.809V14.1938H182.374C183.777 14.1938 184.925 13.8836 185.741 13.2373C186.549 12.5909 187 11.6257 187 10.2986V10.2297C187 7.5668 185.308 6.23968 182.289 6.23968V6.24829ZM184.304 10.3245C184.304 11.5827 183.616 12.229 182.221 12.229H180.809V8.40272H182.221C183.548 8.40272 184.304 8.9284 184.304 10.2555V10.3245Z" fill="white"/>
<path d="M13.0273 19.252C14.6175 19.252 15.995 18.8297 17.0069 18.0024C18.0188 17.201 18.6736 15.9514 18.8352 14.3399H15.961C15.7229 16.029 14.6089 16.8563 12.9933 16.8563C10.8419 16.8563 9.63442 15.2964 9.63442 12.5733V12.4267C9.63442 9.69493 10.9355 8.10065 12.9763 8.10065C14.626 8.10065 15.4678 8.92796 15.6889 10.5222H18.6906C18.5461 8.91072 17.8743 7.72148 16.8794 6.92865C15.8675 6.13582 14.4984 5.75664 12.9593 5.75664C11.131 5.75664 9.52388 6.43744 8.38441 7.60944C7.22794 8.78145 6.53916 10.4619 6.53916 12.444V12.5905C6.53916 14.6243 7.10039 16.2703 8.20584 17.425C9.29428 18.597 10.9184 19.2606 13.0358 19.2606L13.0273 19.252ZM26.8539 19.252C28.7927 19.252 30.3063 18.666 31.3353 17.6405C32.3642 16.6322 32.9254 15.1844 32.9254 13.4264V12.039H27.126V14.202H30.0342C30.0172 14.9517 29.7791 15.6498 29.2774 16.141C28.7757 16.6494 28.0104 16.9683 26.9305 16.9683C25.6464 16.9683 24.7621 16.5288 24.1838 15.736C23.6056 14.9862 23.3335 13.8831 23.3335 12.6163V12.4698C23.3335 9.78111 24.6345 8.09204 26.8965 8.09204C28.4696 8.09204 29.4305 8.79007 29.7026 10.324H32.6108C32.4662 8.71251 31.7264 7.55774 30.6975 6.808C29.6686 6.07549 28.3165 5.74802 26.8624 5.74802C24.9662 5.74802 23.2995 6.44605 22.143 7.61806C20.9695 8.79007 20.2808 10.4533 20.2808 12.4354V12.5819C20.2808 14.5467 20.859 16.1927 21.9985 17.3647C23.1039 18.5539 24.7451 19.252 26.8624 19.252H26.8539ZM0 0V25H39.4731V0H0ZM37.0071 22.5009H2.466V2.49914H37.0071V22.5009Z" fill="white"/>
</svg>
