<svg width="134" height="38" viewBox="0 0 134 38" fill="none" xmlns="http://www.w3.org/2000/svg">
<path d="M0 5.19458H6.28638V7.58939H2.556V15.9888C3.52314 15.9888 4.35211 16.253 5.04292 16.7812C5.73373 17.3095 6.28638 18.2076 6.66632 19.4754C7.06354 20.7432 7.25351 22.4513 7.25351 24.582C7.25351 26.7127 7.06354 28.4207 6.66632 29.6886C6.26911 30.9564 5.73373 31.8545 5.04292 32.3827C4.35211 32.911 3.52314 33.1751 2.556 33.1751H0V5.19458ZM2.74597 30.7979C3.31589 30.7979 3.76492 30.3929 4.05851 29.5653C4.35211 28.7377 4.50754 27.0825 4.50754 24.5996C4.50754 22.1167 4.35211 20.4615 4.05851 19.6339C3.76492 18.8063 3.31589 18.4013 2.74597 18.4013H2.556V30.7979H2.74597Z" fill="#A41119"/>
<path d="M14.9725 5.19458H19.2901L21.0516 33.1927H18.4956L18.2193 26.9944H16.0433L15.7669 33.1927H13.2109L14.9725 5.19458ZM18.1157 24.5996L17.3385 8.3994H16.9413L16.1642 24.5996H18.1157Z" fill="#A41119"/>
<path d="M26.822 30.7979H27.9963C28.3936 29.6181 28.7217 27.9981 28.9807 25.9379C29.2398 23.8776 29.378 21.4828 29.378 18.7887C29.378 16.4467 29.2916 14.2984 29.1362 12.3438C28.9807 10.3892 28.7908 8.80441 28.5835 7.58939V5.19458H35.6471V30.7979H37.2187V38H34.6627V33.1927H29.3607V38H26.8047V30.7979H26.822ZM33.0911 30.7979V7.607H31.3295C31.7267 10.5125 31.9167 14.2456 31.9167 18.8063C31.9167 21.2891 31.8131 23.5783 31.5886 25.6737C31.364 27.7692 31.0877 29.4773 30.7423 30.8155H33.0911V30.7979Z" fill="#A41119"/>
<path d="M44.9195 5.19458H49.237L50.9986 33.1927H48.4426L48.1663 26.9944H45.973L45.6966 33.1927H43.1406L44.9195 5.19458ZM48.0627 24.5996L47.2855 8.3994H46.8883L46.1111 24.5996H48.0627Z" fill="#A41119"/>
<path d="M57.457 5.19458H63.3462V7.58939H60.013V17.785H62.759V20.1798H60.013V30.7803H63.3462V33.1751H57.457V5.19458Z" fill="#A41119"/>
<path d="M69.7891 5.19458H72.3451C73.6058 5.19458 74.642 5.74046 75.4364 6.8146C76.2481 7.88874 76.6454 9.49116 76.6454 11.5866C76.6454 13.6997 76.2481 15.2845 75.4364 16.3586C74.6247 17.4328 73.5885 17.9786 72.3451 17.9786V18.3837C73.813 18.3837 74.9529 18.9824 75.7991 20.1622C76.6281 21.342 77.0598 23.2261 77.0598 25.7794C77.0598 28.3327 76.6454 30.2168 75.7991 31.3966C74.9701 32.5764 73.813 33.1751 72.3451 33.1751H69.7891V5.19458ZM72.535 15.7951C72.9841 15.7951 73.3122 15.5134 73.554 14.9675C73.7958 14.4216 73.8994 13.3651 73.8994 11.7803C73.8994 10.1251 73.7785 9.01571 73.554 8.43462C73.3122 7.85353 72.9841 7.57178 72.535 7.57178H72.3451V15.7775H72.535V15.7951ZM72.535 30.7979C73.105 30.7979 73.554 30.4458 73.8476 29.7238C74.1412 29.0018 74.2966 27.6283 74.2966 25.6033C74.2966 23.6487 74.1412 22.3281 73.8476 21.6413C73.554 20.9546 73.105 20.6024 72.535 20.6024H72.3451V30.7979H72.535Z" fill="#A41119"/>
<path d="M85.3311 32.5412C84.7439 31.8368 84.2776 30.4281 83.9322 28.3327C83.5868 26.2372 83.4141 23.1909 83.4141 19.1936C83.4141 15.1964 83.5868 12.1501 83.9322 10.0546C84.2776 7.95915 84.7439 6.56805 85.3311 5.84609C85.9183 5.14173 86.6609 4.78955 87.5417 4.78955C88.1634 4.78955 88.7333 5.00086 89.2341 5.44108C89.735 5.8813 90.1322 6.62088 90.4258 7.6598C90.7194 8.69873 90.8748 10.0722 90.8748 11.7803C90.8748 13.6821 90.6848 15.214 90.2876 16.3762H87.9389C88.0425 15.7423 88.1288 14.9851 88.2152 14.1399C88.3015 13.2947 88.3361 12.4318 88.3361 11.5866C88.3361 10.2835 88.3015 9.27982 88.2325 8.61068C88.1634 7.92394 88.077 7.48371 87.9561 7.29002C87.8352 7.09632 87.6971 6.99066 87.5417 6.99066C87.2826 6.99066 87.0581 7.2548 86.8508 7.76546C86.6609 8.29372 86.4882 9.4383 86.3673 11.2344C86.2291 13.0129 86.1773 15.6719 86.1773 19.1936C86.1773 22.7154 86.2464 25.3744 86.3673 27.1529C86.5054 28.9314 86.6609 30.0936 86.8508 30.6218C87.0408 31.1501 87.2826 31.3966 87.5417 31.3966C87.6971 31.3966 87.8352 31.291 87.9561 31.0973C88.077 30.9036 88.1634 30.4633 88.2325 29.7766C88.3015 29.0898 88.3361 28.1037 88.3361 26.8007C88.3361 25.9555 88.3015 25.0926 88.2152 24.2474C88.1288 23.4022 88.0425 22.645 87.9389 22.0111H90.2876C90.6848 23.1909 90.8748 24.7228 90.8748 26.607C90.8748 28.3151 90.7194 29.6886 90.4258 30.7275C90.1322 31.7664 89.7177 32.506 89.2341 32.9462C88.7333 33.3864 88.1807 33.5977 87.5417 33.5977C86.6609 33.5977 85.9183 33.2456 85.3311 32.5412Z" fill="#A41119"/>
<path d="M97.6797 5.19458H100.236V17.8026H101.617V5.19458H104.363L102.792 17.8026L104.95 33.2104H102.205L100.823 20.0037H100.236V33.2104H97.6797V5.19458Z" fill="#A41119"/>
<path d="M111.289 5.19458H114.225L112.843 28.4031H113.241L116.177 5.19458H119.112V33.1927H116.177L117.558 9.9842H117.161L114.225 33.1927H111.289V5.19458Z" fill="#A41119"/>
<path d="M126.176 5.19463H129.112L127.73 28.4032H128.127L131.063 5.19463H133.999V33.1928H131.063L132.445 9.98425H132.048L129.112 33.1928H126.176V5.19463ZM127.747 2.53568C127.229 2.09546 126.97 1.51437 126.97 0.792401C126.97 0.528267 127.039 0.264134 127.16 0H129.319V1.79611H130.891V0H133.049C133.188 0.264134 133.239 0.528267 133.239 0.792401C133.239 1.51437 132.98 2.09546 132.462 2.53568C131.944 2.97591 131.15 3.18721 130.113 3.18721C129.06 3.20482 128.265 2.97591 127.747 2.53568Z" fill="#A41119"/>
</svg>
