<svg width="26" height="25" viewBox="0 0 26 25" fill="none" xmlns="http://www.w3.org/2000/svg">
<path d="M9.29077 16.2817V9.60382H9.15849L6.74553 10.5161V11.2778L8.44691 10.6575V16.2817H9.29077Z" fill="#9E9E9E"/>
<path fill-rule="evenodd" clip-rule="evenodd" d="M13.7029 9.63119H13.7759V10.3473H13.7029C13.2559 10.3473 12.8818 10.4203 12.5808 10.5663C12.2797 10.7092 12.041 10.9023 11.8647 11.1456C11.6883 11.3858 11.5606 11.6564 11.4815 11.9575C11.435 12.1415 11.4028 12.3272 11.3847 12.5147C11.4299 12.4636 11.4774 12.4162 11.5271 12.3726C11.7035 12.2175 11.8996 12.105 12.1155 12.035C12.3345 11.962 12.5656 11.9256 12.8089 11.9256C13.1403 11.9256 13.4262 11.9879 13.6664 12.1126C13.9066 12.2372 14.1043 12.4045 14.2594 12.6143C14.4145 12.8211 14.5285 13.0552 14.6015 13.3168C14.6775 13.5752 14.7155 13.8413 14.7155 14.115C14.7155 14.4282 14.6714 14.7217 14.5832 14.9953C14.495 15.269 14.3628 15.5093 14.1864 15.716C14.0131 15.9228 13.7987 16.084 13.5432 16.1995C13.2878 16.3151 12.9913 16.3729 12.6538 16.3729C12.2949 16.3729 11.9817 16.2999 11.7141 16.1539C11.4465 16.0049 11.2245 15.8073 11.0482 15.561C10.8718 15.3146 10.7395 15.041 10.6513 14.7399C10.5631 14.4389 10.5191 14.1333 10.5191 13.8231V13.4262C10.5191 12.9579 10.5662 12.4988 10.6605 12.0487C10.7547 11.5987 10.9174 11.1912 11.1485 10.8263C11.3827 10.4614 11.7065 10.1709 12.1201 9.95504C12.5337 9.73914 13.0613 9.63119 13.7029 9.63119ZM11.3675 13.8504V13.53C11.404 13.4304 11.4541 13.335 11.518 13.2438C11.6487 13.0583 11.8145 12.9093 12.0152 12.7968C12.2189 12.6812 12.4379 12.6234 12.672 12.6234C12.8788 12.6234 13.0567 12.666 13.2057 12.7512C13.3577 12.8333 13.4839 12.9473 13.5843 13.0933C13.6846 13.2362 13.7591 13.4004 13.8078 13.5859C13.8564 13.7683 13.8808 13.9584 13.8808 14.1561C13.8808 14.378 13.8534 14.5818 13.7987 14.7673C13.7439 14.9528 13.6634 15.1139 13.5569 15.2508C13.4535 15.3846 13.3258 15.4895 13.1738 15.5655C13.0217 15.6385 12.8484 15.675 12.6538 15.675C12.4865 15.675 12.3253 15.6355 12.1703 15.5564C12.0182 15.4773 11.8814 15.3603 11.7597 15.2052C11.6381 15.0501 11.5423 14.86 11.4724 14.635C11.4024 14.4069 11.3675 14.1454 11.3675 13.8504Z" fill="#9E9E9E"/>
<path d="M20.1685 12.7192V13.5129H18.3166V15.6157H17.4728V13.5129H15.6163V12.7192H17.4728V10.7806H18.3166V12.7192H20.1685Z" fill="#9E9E9E"/>
<path fill-rule="evenodd" clip-rule="evenodd" d="M25.4102 12.5C25.4102 19.4036 19.8137 25 12.9102 25C6.0066 25 0.410156 19.4036 0.410156 12.5C0.410156 5.59644 6.0066 0 12.9102 0C19.8137 0 25.4102 5.59644 25.4102 12.5ZM24.4842 12.5C24.4842 18.8922 19.3023 24.0741 12.9102 24.0741C6.51797 24.0741 1.33608 18.8922 1.33608 12.5C1.33608 6.10782 6.51797 0.925926 12.9102 0.925926C19.3023 0.925926 24.4842 6.10782 24.4842 12.5Z" fill="#9E9E9E"/>
</svg>
