<svg width="66" height="66" viewBox="0 0 66 66" fill="none" xmlns="http://www.w3.org/2000/svg">
<rect x="0.5" y="0.5" width="65" height="65" rx="32.5" stroke="white"/>
<path d="M30.6579 36.423C28.5431 38.4758 29.3844 39.2206 30.6579 40.0998C33.6925 42.1949 35.6828 43.5544 39.5183 45.9989C43.3538 48.4434 44.0202 45.73 44.2404 45.0328C44.7633 43.3767 47.5887 26.189 47.8963 23.5025C48.1244 21.5112 47.9826 20.7251 47.4077 20.2751C46.6663 19.6948 45.1702 20.1228 43.5924 20.7252C41.323 21.5916 19.3971 30.7459 16.6285 31.9584C14.0076 33.1061 15.1536 34.074 15.9311 34.4635C16.6285 34.8128 19.4979 35.7172 20.1826 35.8885C23.6892 36.7662 24.7492 36.0578 26.2186 35.2232C28.3368 34.02 37.9338 27.5284 38.4056 27.2254C38.8773 26.9224 39.4183 26.5856 39.779 26.9275C40.1398 27.2694 39.7513 27.7442 39.4569 28.0391C36.6091 30.8916 32.7727 34.3701 30.6579 36.423Z" fill="white"/>
</svg>
