<svg width="180" height="36" viewBox="0 0 180 36" fill="none" xmlns="http://www.w3.org/2000/svg">
<path d="M135.331 11.2934H135.923V0H135.535L133.923 2.25274C132.895 1.18968 130.473 0.703491 129.422 0.703491C124.091 0.703491 120.414 7.55081 120.414 15.5878C120.414 24.8411 124.166 30.4111 129.465 30.4111C134.531 30.4111 136.387 23.8499 136.602 19.0943H135.942C135.465 22.8119 133.822 28.2772 130.812 28.2772C128.533 28.2772 128.16 25.4539 128.16 20.9969V9.10005C128.16 4.96352 128.956 2.10891 131.104 2.10891C133.448 2.10891 135.088 6.5925 135.334 11.2949H135.331V11.2934ZM9.0434 2.82022V14.1464H10.3409C11.278 14.1464 12.2871 13.5258 12.2871 10.7118V6.12975C12.2871 2.79052 11.1819 2.82178 10.4941 2.82178L9.0434 2.82334V2.82022ZM0 28.2585H1.92672V2.82022H0V1.50391L11.3726 1.50703C15.5729 1.50703 18.7295 3.96456 18.7295 7.75247C18.7295 11.5138 16.9845 14.2731 13.5366 14.7686V15.172C16.513 15.1126 20.0481 17.5607 20.0481 21.3814C20.0481 26.8937 16.4379 29.6436 11.4762 29.6436H0V28.2585ZM9.02238 15.5456L9.0419 28.2585H10.4235C11.1293 28.26 12.9224 28.296 12.9224 24.8254V18.9317C12.9224 16.4398 11.4251 15.5456 10.3379 15.5456H9.02238ZM21.3591 2.81397H23.2903V28.2569H21.3591V29.6311H38.1424V19.0802H37.6228C37.1002 24.1047 35.5684 28.2788 30.404 28.2678L30.3694 15.5425H31.0617C33.1281 15.5425 34.0201 18.3424 34.2979 21.1798H34.9467V8.49192H34.2994C34.1087 11.4075 33.0981 14.1449 31.0632 14.1449H30.4055L30.3709 2.81709C30.3709 2.81709 36.4815 1.26941 36.9275 11.3309H37.5537V1.49453H21.3591V2.81397ZM47.8991 2.84523V28.271H43.6807V27.5644C44.6283 25.1021 45.3071 17.8953 45.3071 13.4382V5.67014C45.3071 3.56123 45.9378 2.84523 46.6031 2.84523C46.6046 2.84523 47.8991 2.84523 47.8991 2.84523ZM40.7854 1.50391V2.83429H42.7632C43.3954 2.83429 44.0141 3.52996 44.0141 5.65607V13.8463C44.0141 20.4419 43.3609 27.0297 41.4221 28.271H39.4804V36H40.1276C40.1276 32.0542 41.5062 29.6451 44.6599 29.6451H51.7841C55.0623 29.6451 56.965 31.4898 56.965 36H57.6123V28.2725H55.0203V2.8468L56.9635 2.83429V1.50391H40.7839H40.7854ZM80.9371 7.07712H80.2793L80.2613 25.396C80.2613 27.3908 81.329 28.2678 82.8323 28.2835L82.8533 29.6436H76.4004V28.2976C77.3344 28.2976 78.9863 28.1193 78.9863 25.4289L78.9908 2.80615H77.0521V1.49922H85.9754L88.0493 11.0683L90.1201 1.49922L99.6997 1.49609V2.77019H97.7264L97.7594 28.2632H99.6982V29.6326H88.686V28.2632H90.6427V7.06305H90.1231L86.1075 29.6451L85.5173 29.6326L80.9371 7.07712ZM144.382 2.8124C141.101 2.8124 139.242 7.0865 139.242 11.3043H138.557V1.47733L157.319 1.50078V11.3059H156.63C156.63 7.44138 155.046 2.81084 151.472 2.81084V28.2866H154.083V29.6326H141.819V28.2866H144.379V2.81084L144.382 2.8124ZM158.635 2.80146H160.587V28.2585H158.648V29.6326H168.971V28.2585H167.647V26.8765L170.389 12.0422H170.909L170.949 28.2585H169.629V29.6326H180V28.2819H178.009V2.82491H180V1.50078H169.632V2.82491H170.951V4.27254L168.205 18.3658H167.687V2.80146H169.007V1.50078H158.635V2.80146ZM65.3567 4.21626C65.3567 2.49661 66.1376 1.93851 66.998 1.93851C67.86 1.93851 68.6319 2.49661 68.6319 4.21626V26.7952C68.6319 28.5164 67.86 29.1464 66.998 29.1464C66.1376 29.1464 65.3567 28.5164 65.3567 26.7952V4.21626ZM58.255 15.5972C58.255 22.5586 61.0017 30.3799 66.9965 30.3799C72.9989 30.3799 75.7486 22.6446 75.7486 15.6879C75.7486 8.72642 73.0005 0.705054 66.998 0.705054C61.0016 0.705054 58.255 8.64044 58.255 15.5972ZM108.097 4.21626C108.097 2.49661 108.88 1.93851 109.739 1.93851C110.601 1.93851 111.374 2.49661 111.374 4.21626V26.7952C111.374 28.5164 110.601 29.1464 109.739 29.1464C108.88 29.1464 108.097 28.5164 108.097 26.7952V4.21626ZM100.996 15.5972C100.996 22.5586 103.742 30.3799 109.737 30.3799C115.74 30.3799 118.488 22.6446 118.488 15.6879C118.488 8.72642 115.741 0.705054 109.739 0.705054C103.742 0.705054 100.997 8.63887 100.997 15.5972H100.996Z" fill="#464646"/>
</svg>
