<svg width="66" height="66" viewBox="0 0 66 66" fill="none" xmlns="http://www.w3.org/2000/svg">
<rect x="0.5" y="0.5" width="65" height="65" rx="32.5" stroke="white"/>
<path d="M48.082 23.0407C49.1992 23.0407 49.4019 23.7318 49.1496 24.5509C48.6811 26.7847 44.1898 33.3163 44.2258 33.3163C43.8294 33.9865 43.6852 34.2843 44.2258 35.0289C44.6222 35.5874 45.9197 36.7415 46.7846 37.784C48.3703 39.6455 49.5957 41.2092 49.92 42.2889C50.2083 43.3686 49.7038 43.9271 48.6226 43.9271H44.9106C43.505 43.9271 43.0725 42.7357 40.5498 40.1295C38.3514 37.9329 37.555 37.6863 36.9976 37.6398C36.4401 37.5932 35.8647 37.8212 35.8647 38.9382V42.4006C35.8647 44.2948 34.3706 44.0569 33.1978 43.8898C21.4554 42.2167 16.8867 29.4012 16.0385 24.2833C15.9305 23.6319 15.971 22.9453 17.2324 23.0035H20.9805C21.9175 23.0035 22.3448 23.3916 22.6383 24.4927C24.35 30.915 27.2902 34.5683 28.6522 34.5683C28.8718 34.5683 29.4364 34.632 29.4857 33.3163V27.6573C29.4857 24.644 28.0081 24.8278 28.0081 23.897C28.0081 23.4502 28.3685 23.0035 28.9451 23.0035H34.7835C35.8647 23.0035 35.8647 23.4502 35.8647 24.4182V32.0505C35.8647 32.9161 36.2205 33.079 36.5134 33.079C36.8823 33.079 37.3063 32.8696 38.1712 31.976C40.8381 28.8859 42.7482 24.1204 42.7482 24.1204C43.0005 23.5619 43.4329 23.0407 44.37 23.0407H48.082Z" fill="white"/>
</svg>
